<?xml version="1.0" standalone="no"?>
<!DOCTYPE svg PUBLIC "-//W3C//DTD SVG 20010904//EN"
 "http://www.w3.org/TR/2001/REC-SVG-20010904/DTD/svg10.dtd">
<svg version="1.0" xmlns="http://www.w3.org/2000/svg"
 width="512.000000pt" height="512.000000pt" viewBox="0 0 512.000000 512.000000"
 preserveAspectRatio="xMidYMid meet">
<metadata>
Created by potrace 1.11, written by Peter Selinger 2001-2013
</metadata>
<g transform="translate(0.000000,512.000000) scale(0.100000,-0.100000)"
fill="#000000" stroke="none">
<path d="M1080 5115 c-8 -2 -49 -9 -90 -15 -478 -78 -873 -470 -971 -965 -21
-104 -21 -3046 0 -3150 98 -493 473 -868 966 -966 104 -21 3046 -21 3150 0
493 98 868 473 966 966 21 104 21 3046 0 3150 -19 96 -64 231 -102 307 -168
336 -454 560 -836 655 -62 15 -196 17 -1568 19 -825 1 -1507 1 -1515 -1z m313
-454 c215 -56 348 -192 408 -418 18 -65 22 -117 26 -315 3 -131 7 -238 8 -238
2 0 134 77 294 171 159 93 316 180 348 191 79 28 206 28 286 0 61 -22 1260
-720 1339 -780 59 -44 120 -126 150 -200 l23 -57 3 -784 c3 -844 3 -834 -50
-948 -12 -26 -51 -77 -87 -113 -59 -58 -135 -106 -676 -422 -335 -196 -637
-370 -670 -385 -55 -26 -70 -28 -175 -28 -105 0 -120 2 -175 28 -33 15 -334
189 -670 385 -541 316 -617 364 -676 422 -68 68 -100 123 -124 217 -22 83 -23
3239 -1 3268 29 39 276 43 419 6z"/>
<path d="M2629 3269 c-445 -48 -822 -377 -935 -817 -35 -135 -43 -312 -19
-453 63 -379 306 -689 655 -837 145 -62 274 -85 440 -79 151 5 251 29 388 93
144 66 352 221 352 261 0 10 -31 47 -69 83 -37 36 -206 195 -375 354 -168 158
-306 294 -306 301 0 22 31 54 389 399 239 231 351 346 351 360 0 41 -222 196
-367 256 -162 68 -346 97 -504 79z m-250 -638 c40 -28 63 -66 68 -112 17 -167
-216 -223 -281 -67 -26 64 -16 112 35 160 52 50 124 57 178 19z"/>
</g>
</svg>
