<svg width="87" height="139" xmlns="http://www.w3.org/2000/svg" xmlns:xlink="http://www.w3.org/1999/xlink">
  <defs>
    <radialGradient cx="50%" cy="33.526%" fx="50%" fy="33.526%" r="160.268%" gradientTransform="matrix(0 .62312 -1 0 .835 .024)" id="c">
      <stop stop-color="#FFDC3F" offset="0%"/>
      <stop stop-color="#FF7614" offset="100%"/>
    </radialGradient>
    <linearGradient x1="50%" y1="6.616%" x2="50%" y2="100%" id="a">
      <stop stop-color="#FFAF2C" offset="0%"/>
      <stop stop-color="#FFB52F" offset="49.407%"/>
      <stop stop-color="#FF9B24" offset="100%"/>
    </linearGradient>
    <path d="M5.309 1.124H81.69a4.439 4.439 0 014.439 4.439v122.115a4.439 4.439 0 01-3.774 4.39L43.5 137.95l-38.856-5.884a4.439 4.439 0 01-3.774-4.389V5.563a4.439 4.439 0 014.439-4.44z" id="b"/>
  </defs>
  <g fill="none" fill-rule="evenodd">
    <path d="M87 128.838a4.439 4.439 0 01-3.792 4.391l-38.415 5.655a8.878 8.878 0 01-2.586 0L3.792 133.23A4.439 4.439 0 010 128.838V5.327A5.327 5.327 0 015.327 0h76.346A5.327 5.327 0 0187 5.327z" fill="url(#a)"/>
    <use fill="url(#c)" xlink:href="#b"/>
  </g>
</svg>
