<svg width="196" height="244" xmlns="http://www.w3.org/2000/svg" xmlns:xlink="http://www.w3.org/1999/xlink">
  <defs>
    <radialGradient cx="50%" cy="50%" fx="50%" fy="50%" r="78.67%" gradientTransform="matrix(0 .79972 -1 0 1 .1)" id="c">
      <stop stop-color="#F0C7FF" offset="0%"/>
      <stop stop-color="#BA26FF" offset="100%"/>
    </radialGradient>
    <linearGradient x1="50%" y1="0%" x2="50%" y2="100%" id="a">
      <stop stop-color="#BF34FF" offset="0%"/>
      <stop stop-color="#CA5EFC" offset="49.234%"/>
      <stop stop-color="#C345FC" offset="100%"/>
    </linearGradient>
    <path d="M11.96 1.973h172.08c5.523 0 10 4.477 10 10v209.966a10 10 0 01-8.822 9.93L98.49 242.157 10.794 231.86a10 10 0 01-8.834-9.932V11.973c0-5.523 4.477-10 10-10z" id="b"/>
  </defs>
  <g fill="none" fill-rule="evenodd">
    <path d="M196 223.973a10 10 0 01-8.855 9.934l-86.366 9.958a20 20 0 01-4.558.003l-87.355-9.97A10 10 0 010 223.963V12C0 5.373 5.373 0 12 0h172c6.627 0 12 5.373 12 12z" fill="url(#a)"/>
    <use fill="url(#c)" xlink:href="#b"/>
  </g>
</svg>
