<svg width="27" height="35" xmlns="http://www.w3.org/2000/svg"><g fill="none" fill-rule="evenodd"><path d="M11.71 9.38l.076.067.16.151.255.245.381.376.784.785.81.82 1.056 1.08 1.682 1.729c-.1-.421-.185-.841-.256-1.26-.22-1.29.413-2.33 1.58-2.625 1.133-.286 2.326.405 2.637 1.522l.088.314.084.29.08.27.078.253.078.243.08.234.082.231c.042.116.086.23.132.349l.096.24.05.123.109.256.118.273.13.294.07.155c.34.752.85 1.687 1.415 2.622l.23.374.233.37c.43.677.874 1.326 1.287 1.877 1.259 1.682 1.24 4.49-.019 6.034-.662.813-1.28 1.49-1.853 2.035l-.114.107-.212.205-.307.293-.298.282-.428.4-.407.374-.384.348-.244.217-.234.205c-1.798 1.562-4.702 1.715-7.004-.46l-.555-.529-.507-.486-.28-.272-.345-.34-.315-.314-.283-.288-.252-.262-.169-.18-.15-.165-.135-.15-.08-.093-.048-.058-3.967-3.953-1.122-1.13-.712-.722-.54-.553-.243-.253-.154-.165-.124-.137-.099-.116-.04-.05-.053-.07-.044-.063-.037-.06-.031-.056-.02-.038-.026-.058-.097-.225c-.563-1.285.132-2.491 1.144-2.973l-.093-.098-.15-.161-.119-.134-.072-.086-.041-.051-.053-.07-.03-.044-.026-.041-.035-.06-.03-.057-.03-.064-.096-.225c-.593-1.352.208-2.617 1.305-3.042l.078.11c-.733-.954-.49-2.369.413-3.09.772-.616 1.911-.62 2.719-.067.574-1.238 2.26-1.77 3.442-.76zM9.5 11.303l.107.108 1.013 1.033 1.342 1.384 2.73 2.842 1.971 2.062-1.01 1-3.354-3.505-1.4-1.454-1.596-1.643-.884-.898-.582-.577-.203-.195-.069-.064c-.305-.279-.843-.306-1.15-.062-.315.253-.405.774-.172 1.076l.057.074.121.151c.084.104.175.212.273.324l.152.172.162.18.172.185.183.193.095.1.197.202.075.075.309.302.323.323.184.179.122.117-.005.005.31.311 1.122 1.136 1.688 1.725 2.394 2.464-1.002 1.008-2.04-2.099-1.814-1.857-1.223-1.24-.656-.659-.233-.226-.233-.23-.223-.224-.065-.066-.202-.195-.204-.19c-.556-.51-1.55.186-1.262.95l.025.06.036.08.023.045.038.063.022.034.026.036.048.061.037.046.093.106.12.132.196.207.378.39.686.694c.036.029.071.06.106.091l.118.11.28.264.53.516.505.5.862.865 1.03 1.042 1.034 1.055.864.885-.5.505-.491.515-3.48-3.464-1.35-1.356-.428-.436c-.566-.373-1.45.291-1.177 1.018l.025.06.036.079.023.045.027.047.033.05.041.056.05.064.041.048.072.082.087.096.105.112.324.337.178.183 1.763 1.785 2.341 2.338 1.929 1.918.086.104.11.125.171.19.202.216.172.179.188.193.352.353.484.476.36.349.594.57.323.305c1.743 1.648 3.848 1.537 5.131.421l.228-.2.238-.21.248-.224.258-.235.267-.248.278-.258.287-.271.297-.283.308-.294.157-.151-.085.08c.553-.512 1.165-1.178 1.832-1.997.835-1.024.848-3.09-.018-4.247-1.184-1.581-2.599-3.907-3.324-5.513l-.074-.164-.137-.309-.125-.289a27.54 27.54 0 01-.059-.138l-.11-.265-.101-.255c-.066-.167-.127-.33-.185-.495l-.086-.247-.042-.126-.083-.257-.084-.27-.084-.284-.088-.305-.093-.329c-.102-.367-.542-.622-.943-.52-.436.11-.627.424-.531.986.194 1.138.5 2.29.92 3.455l.098.266 1.073 1.11.181.186-1.004 1.007-2.627-2.715-2.155-2.216-.9-.921-.888-.903-.79-.797-.551-.548-.283-.276-.214-.204-.082-.075c-.577-.522-1.493-.02-1.323.807z" fill="#E2E2E2" fill-rule="nonzero"/><path fill="#2E2E2E" d="M22.803 23.858l-3.275-5.57-2.229-5.094h-1.627l-.717 1.431 1.14 4.167-7.435-7.468H6.944l-.466 1.87-1.898-1.318-1.49.828v1.921l.726.669-1.5 1.03v1.274l.774 1.805-1.455.657v1.866l10.169 10.349 2.474 1.258h2.45l4.925-4.347 1.542-2.69z"/><path d="M9.323 10.97l.076.068.161.15.255.246.381.376.784.785.809.82 1.057 1.08 1.682 1.728c-.1-.42-.185-.84-.256-1.259-.22-1.29.412-2.33 1.58-2.625 1.133-.286 2.325.405 2.637 1.522l.088.314.083.29.08.27.079.253.078.243.08.234.082.231c.042.115.085.23.132.349l.095.24.051.122.108.257.119.273.13.294.07.155c.34.752.85 1.687 1.415 2.622l.229.374.233.37c.43.677.875 1.326 1.287 1.877 1.26 1.682 1.241 4.49-.018 6.034-.662.812-1.28 1.49-1.853 2.035l-.115.107-.211.204-.308.294-.297.282-.429.4-.406.374-.384.348-.244.217-.235.205c-1.797 1.562-4.701 1.715-7.003-.46l-.556-.529-.506-.486-.28-.272-.346-.34-.314-.314-.283-.288-.252-.262-.169-.18-.151-.165-.134-.15-.08-.093-.048-.058-3.968-3.953-1.122-1.13-.711-.722-.541-.553-.242-.253-.155-.165-.124-.137-.098-.116-.041-.05-.053-.07-.043-.063-.037-.06-.032-.056-.019-.038-.027-.058-.096-.225c-.564-1.285.132-2.491 1.144-2.973l-.094-.098-.15-.161-.118-.134-.072-.086-.041-.052-.053-.07-.03-.043-.026-.041-.035-.06-.03-.058-.03-.063-.096-.225c-.593-1.352.208-2.617 1.305-3.042l.078.11c-.734-.954-.491-2.369.413-3.09.772-.617 1.911-.62 2.718-.067.575-1.238 2.261-1.77 3.443-.76zm-2.208 1.925l.107.108 1.013 1.033 1.342 1.384 2.73 2.842 1.97 2.062-1.009 1-3.355-3.505-1.4-1.454-1.595-1.644-.884-.897-.582-.577-.203-.195-.07-.064c-.304-.279-.842-.306-1.149-.062-.316.253-.405.774-.173 1.076l.057.073.122.152c.084.103.175.211.273.324l.152.172.162.18.172.185.182.193.095.099.198.203.074.075.31.302.322.323.184.179.123.117-.006.005.311.31 1.122 1.137 1.687 1.725 2.395 2.464-1.002 1.008-2.04-2.099-1.814-1.857-1.223-1.24-.657-.659-.232-.226-.234-.23-.223-.225-.065-.065-.201-.195-.205-.191c-.555-.509-1.55.187-1.262.95l.025.06.036.08.024.046.037.063.023.034.026.036.047.06.038.047.093.106.12.131.196.208.378.39.685.693c.036.03.072.06.107.092l.117.109.28.265.53.516.506.5.862.865 1.029 1.042 1.035 1.055.864.885-.5.505-.491.515-3.48-3.464-1.35-1.356-.429-.436c-.565-.374-1.45.291-1.177 1.017l.025.06.036.08.024.045.027.047.033.05.04.056.051.064.04.048.073.082.087.096.105.112.324.337.178.183L5.07 24.3l2.342 2.338 1.929 1.917.086.105.109.125.172.19.202.216.172.179.188.193.352.353.483.476.36.349.595.57.322.305c1.744 1.648 3.848 1.537 5.132.421l.228-.2.238-.21.248-.224.257-.236.268-.247.277-.258.288-.271.297-.283.307-.294.158-.151-.085.08c.553-.512 1.164-1.178 1.832-1.997.834-1.024.848-3.09-.019-4.247-1.184-1.582-2.598-3.907-3.323-5.513l-.074-.164-.137-.309-.125-.289-.059-.138-.11-.265-.102-.255c-.065-.167-.126-.33-.184-.495l-.086-.247-.042-.126-.084-.257-.083-.27-.085-.285-.088-.304-.092-.329c-.103-.367-.542-.622-.944-.52-.435.11-.626.424-.53.986.193 1.138.5 2.29.92 3.455l.097.266 1.074 1.109.18.187-1.003 1.007-2.627-2.715-2.156-2.216-.9-.921-.888-.903-.79-.797-.55-.548-.283-.276-.214-.204-.082-.075c-.577-.522-1.494-.02-1.323.807zM11.32 7.087V.905L7.653 2.151l3.667 4.936zm-.796-5.072v2.668l-1.582-2.13 1.582-.538z" fill="#F0BB16" fill-rule="nonzero"/><path d="M5.754 6.103L4.17.26.596 3.093l5.158 3.01zm-2.038-4.47l.76 2.804-2.474-1.444 1.714-1.36z" fill="#E2E2E2" fill-rule="nonzero"/></g></svg>