<svg width="196" height="244" xmlns="http://www.w3.org/2000/svg" xmlns:xlink="http://www.w3.org/1999/xlink">
  <defs>
    <radialGradient cx="50%" cy="36.063%" fx="50%" fy="36.063%" r="124.804%" gradientTransform="matrix(0 .79972 -1 0 .86 -.04)" id="c">
      <stop stop-color="#FFB83B" offset="0%"/>
      <stop stop-color="#F3582E" offset="100%"/>
    </radialGradient>
    <linearGradient x1="49.039%" y1="0%" x2="50%" y2="100%" id="a">
      <stop stop-color="#F98935" offset="0%"/>
      <stop stop-color="#FA8734" offset="52.511%"/>
      <stop stop-color="#F87D33" offset="100%"/>
    </linearGradient>
    <path d="M11.96 1.973h172.08c5.523 0 10 4.477 10 10v209.961a10 10 0 01-8.828 9.931L98 242.155l-87.212-10.29a10 10 0 01-8.828-9.93V11.972c0-5.523 4.477-10 10-10z" id="b"/>
  </defs>
  <g fill="none" fill-rule="evenodd">
    <path d="M196 223.973a10 10 0 01-8.855 9.934l-86.366 9.958a20 20 0 01-4.558.003l-87.355-9.97A10 10 0 010 223.963V12C0 5.373 5.373 0 12 0h172c6.627 0 12 5.373 12 12z" fill="url(#a)"/>
    <use fill="url(#c)" xlink:href="#b"/>
  </g>
</svg>
