<svg width="15" height="19" xmlns="http://www.w3.org/2000/svg">
  <defs>
    <linearGradient x1="162.586%" y1="0%" x2="17.816%" y2="100%" id="a">
      <stop stop-color="#FFE751" offset="0%"/>
      <stop stop-color="#EDA723" offset="100%"/>
    </linearGradient>
  </defs>
  <path d="M9.575 3.333a1.95 1.95 0 011.95 1.95v11.292a1.95 1.95 0 01-1.95 1.95H1.95A1.95 1.95 0 010 16.575V5.283a1.95 1.95 0 011.95-1.95h7.625zM12.913 0a1.95 1.95 0 011.95 1.95v11.292a1.95 1.95 0 01-1.95 1.95H12.8l.011-.14.004-.142V4.66a2.6 2.6 0 00-2.436-2.594l-.164-.005h-6.52c-.121 0-.24.008-.358.024V1.95A1.95 1.95 0 015.288 0h7.626z" fill="url(#a)" fill-rule="evenodd"/>
</svg>
