<svg width="18" height="20" xmlns="http://www.w3.org/2000/svg" xmlns:xlink="http://www.w3.org/1999/xlink"><defs><linearGradient x1=".323%" y1="50%" x2="100.321%" y2="50%" id="a"><stop stop-color="#FCEE21" offset="0%"/><stop stop-color="#F7931E" offset="100%"/></linearGradient><linearGradient x1="18.408%" y1="27.437%" x2="81.592%" y2="50.032%" id="c"><stop stop-color="#FFF00E" offset="0%"/><stop stop-color="#FF9519" offset="100%"/></linearGradient><linearGradient x1="0%" y1="50%" x2="100%" y2="50%" id="d"><stop stop-color="#FCEE21" offset="0%"/><stop stop-color="#F7931E" offset="100%"/></linearGradient><linearGradient x1="18.307%" y1="27.437%" x2="81.693%" y2="50.032%" id="f"><stop stop-color="#FFF00E" offset="0%"/><stop stop-color="#FF9519" offset="100%"/></linearGradient><linearGradient x1="0%" y1="41.512%" x2="100%" y2="50.012%" id="g"><stop stop-color="#FFF00E" offset="0%"/><stop stop-color="#FF9519" offset="100%"/></linearGradient><path d="M15.45 12.035h-5.265a.5.5 0 00-.5.5v6.86a.435.435 0 00.44.44h3.2a2.56 2.56 0 002.56-2.56V12.5a.455.455 0 00-.435-.465z" id="b"/><path d="M7.815 12.035h-5.28a.45.45 0 00-.45.455v4.785a2.555 2.555 0 002.555 2.56h3.215a.44.44 0 00.44-.44V12.5a.5.5 0 00-.48-.465z" id="e"/></defs><g fill-rule="nonzero" fill="none"><g><use fill="url(#a)" xlink:href="#b"/><use fill="url(#c)" xlink:href="#b"/></g><g><use fill="url(#d)" xlink:href="#e"/><use fill="url(#f)" xlink:href="#e"/></g><path d="M16.395 6.195H15.05a5.36 5.36 0 001.79-1.5c.697-.93.772-2.188.19-3.195A2.84 2.84 0 0014.15.225C11 .66 9.565 3.655 9 5.305 8.43 3.645 7 .615 3.88.2A3.07 3.07 0 00.965 1.285a3 3 0 00.25 3.75c.458.477.996.87 1.59 1.16h-1.2C.881 6.195.291 6.776.28 7.5v2a1.325 1.325 0 001.325 1.35h6.69V6.195h1.41v4.655h6.69c.732 0 1.325-.593 1.325-1.325V7.5a1.325 1.325 0 00-1.325-1.305zm-14.13-3.92a1.34 1.34 0 011.105-.5 2 2 0 01.295 0c2.215.3 3.335 2.705 3.79 4.03-1.93-.15-4.225-1-5.03-1.905a1.345 1.345 0 01-.16-1.625zm12.11-.435c.078-.005.157-.005.235 0 .41-.023.8.17 1.03.51a1.29 1.29 0 01-.14 1.425c-.59.85-2.735 1.895-5 2.13.46-1.305 1.585-3.745 3.875-4.065z" fill="url(#g)"/></g></svg>